<mxfile host="app.diagrams.net" agent="Mozilla/5.0 (Windows NT 10.0; Win64; x64) AppleWebKit/537.36 (KHTML, like Gecko) Chrome/141.0.0.0 Safari/537.36" version="28.2.5">
  <diagram name="Deployment Diagram" id="deploymentDiagram1">
    <mxGraphModel dx="872" dy="439" grid="1" gridSize="10" guides="1" tooltips="1" connect="1" arrows="1" fold="1" page="1" pageScale="1" pageWidth="827" pageHeight="1169" math="0" shadow="0">
      <root>
        <mxCell id="0" />
        <mxCell id="1" parent="0" />
        <mxCell id="cE6lG5kNnXl2HR2Tg05l-1" value="" style="rounded=0;whiteSpace=wrap;html=1;" parent="1" vertex="1">
          <mxGeometry x="590" y="50" width="160" height="361" as="geometry" />
        </mxCell>
        <mxCell id="uuu2c3P7Br8u8dXCABAO-1" value="" style="rounded=0;whiteSpace=wrap;html=1;" parent="1" vertex="1">
          <mxGeometry x="310" y="211" width="120" height="139" as="geometry" />
        </mxCell>
        <mxCell id="cE6lG5kNnXl2HR2Tg05l-5" value="(1) Push to repo" style="edgeStyle=orthogonalEdgeStyle;rounded=0;orthogonalLoop=1;jettySize=auto;html=1;entryX=0;entryY=0.5;entryDx=0;entryDy=0;" parent="1" source="FTll38E0-4E9iMJwobfp-13" target="uuu2c3P7Br8u8dXCABAO-1" edge="1">
          <mxGeometry relative="1" as="geometry" />
        </mxCell>
        <mxCell id="FTll38E0-4E9iMJwobfp-13" value="Workstation" style="points=[[0.13,0.02,0],[0.5,0,0],[0.87,0.02,0],[0.885,0.4,0],[0.985,0.985,0],[0.5,1,0],[0.015,0.985,0],[0.115,0.4,0]];verticalLabelPosition=bottom;sketch=0;html=1;verticalAlign=top;aspect=fixed;align=center;pointerEvents=1;shape=mxgraph.cisco19.laptop;fillColor=#005073;strokeColor=none;" parent="1" vertex="1">
          <mxGeometry x="70" y="289" width="80" height="56" as="geometry" />
        </mxCell>
        <mxCell id="FTll38E0-4E9iMJwobfp-41" value="" style="image;aspect=fixed;perimeter=ellipsePerimeter;html=1;align=center;shadow=0;dashed=0;spacingTop=3;image=img/lib/active_directory/generic_server.svg;" parent="1" vertex="1">
          <mxGeometry x="604.5" y="128" width="131" height="233.91" as="geometry" />
        </mxCell>
        <mxCell id="FTll38E0-4E9iMJwobfp-58" value="" style="image;aspect=fixed;html=1;points=[];align=center;fontSize=12;image=img/lib/azure2/security/Key_Vaults.svg;" parent="1" vertex="1">
          <mxGeometry x="100" y="299" width="20" height="20" as="geometry" />
        </mxCell>
        <mxCell id="FTll38E0-4E9iMJwobfp-59" value="" style="image;aspect=fixed;html=1;points=[];align=center;fontSize=12;image=img/lib/azure2/security/Key_Vaults.svg;" parent="1" vertex="1">
          <mxGeometry x="360" y="228" width="20" height="20" as="geometry" />
        </mxCell>
        <mxCell id="FTll38E0-4E9iMJwobfp-66" style="edgeStyle=orthogonalEdgeStyle;rounded=0;orthogonalLoop=1;jettySize=auto;html=1;" parent="1" source="FTll38E0-4E9iMJwobfp-65" target="FTll38E0-4E9iMJwobfp-58" edge="1">
          <mxGeometry relative="1" as="geometry" />
        </mxCell>
        <mxCell id="FTll38E0-4E9iMJwobfp-67" style="edgeStyle=orthogonalEdgeStyle;rounded=0;orthogonalLoop=1;jettySize=auto;html=1;" parent="1" source="FTll38E0-4E9iMJwobfp-65" target="FTll38E0-4E9iMJwobfp-59" edge="1">
          <mxGeometry relative="1" as="geometry" />
        </mxCell>
        <mxCell id="FTll38E0-4E9iMJwobfp-65" value="SSH Private Key" style="whiteSpace=wrap;html=1;shape=mxgraph.basic.document" parent="1" vertex="1">
          <mxGeometry x="166.43" y="128" width="130" height="30" as="geometry" />
        </mxCell>
        <UserObject label="GitHub" placeholders="1" id="cE6lG5kNnXl2HR2Tg05l-7">
          <mxCell style="text;html=1;strokeColor=none;fillColor=none;align=center;verticalAlign=middle;whiteSpace=wrap;overflow=hidden;" parent="1" vertex="1">
            <mxGeometry x="290" y="258" width="140" height="20" as="geometry" />
          </mxCell>
        </UserObject>
        <UserObject label="Google Cloud" placeholders="1" id="cE6lG5kNnXl2HR2Tg05l-8">
          <mxCell style="text;html=1;strokeColor=none;fillColor=none;align=center;verticalAlign=middle;whiteSpace=wrap;overflow=hidden;" parent="1" vertex="1">
            <mxGeometry x="590" y="70" width="160" height="20" as="geometry" />
          </mxCell>
        </UserObject>
        <mxCell id="cE6lG5kNnXl2HR2Tg05l-18" value="" style="sketch=0;outlineConnect=0;fontColor=#232F3E;gradientColor=none;fillColor=#232F3D;strokeColor=none;dashed=0;verticalLabelPosition=bottom;verticalAlign=top;align=center;html=1;fontSize=12;fontStyle=0;aspect=fixed;pointerEvents=1;shape=mxgraph.aws4.documents;" parent="1" vertex="1">
          <mxGeometry x="349.48" y="284" width="41.03" height="50" as="geometry" />
        </mxCell>
        <mxCell id="cE6lG5kNnXl2HR2Tg05l-19" style="edgeStyle=orthogonalEdgeStyle;rounded=0;orthogonalLoop=1;jettySize=auto;html=1;entryX=-0.012;entryY=0.409;entryDx=0;entryDy=0;entryPerimeter=0;" parent="1" source="cE6lG5kNnXl2HR2Tg05l-7" target="cE6lG5kNnXl2HR2Tg05l-1" edge="1">
          <mxGeometry relative="1" as="geometry" />
        </mxCell>
        <mxCell id="cE6lG5kNnXl2HR2Tg05l-20" value="(2) Connect to&amp;nbsp;&lt;div&gt;Google Cloud Server&lt;/div&gt;" style="edgeLabel;html=1;align=center;verticalAlign=middle;resizable=0;points=[];" parent="cE6lG5kNnXl2HR2Tg05l-19" vertex="1" connectable="0">
          <mxGeometry x="-0.3009" y="-3" relative="1" as="geometry">
            <mxPoint as="offset" />
          </mxGeometry>
        </mxCell>
        <mxCell id="cE6lG5kNnXl2HR2Tg05l-21" value="" style="endArrow=classic;html=1;rounded=0;exitX=1.025;exitY=0.827;exitDx=0;exitDy=0;exitPerimeter=0;entryX=0.025;entryY=0.778;entryDx=0;entryDy=0;entryPerimeter=0;" parent="1" source="uuu2c3P7Br8u8dXCABAO-1" target="cE6lG5kNnXl2HR2Tg05l-1" edge="1">
          <mxGeometry width="50" height="50" relative="1" as="geometry">
            <mxPoint x="440" y="393.5" as="sourcePoint" />
            <mxPoint x="490" y="343.5" as="targetPoint" />
          </mxGeometry>
        </mxCell>
        <mxCell id="cE6lG5kNnXl2HR2Tg05l-22" value="(3) Pull from GitHub" style="edgeLabel;html=1;align=center;verticalAlign=middle;resizable=0;points=[];" parent="cE6lG5kNnXl2HR2Tg05l-21" vertex="1" connectable="0">
          <mxGeometry x="0.0255" relative="1" as="geometry">
            <mxPoint as="offset" />
          </mxGeometry>
        </mxCell>
        <mxCell id="Mm_1qLFOmpNbr2z96xXA-4" style="edgeStyle=orthogonalEdgeStyle;rounded=0;orthogonalLoop=1;jettySize=auto;html=1;entryX=0;entryY=0.5;entryDx=0;entryDy=0;" edge="1" parent="1" source="cE6lG5kNnXl2HR2Tg05l-24" target="Mm_1qLFOmpNbr2z96xXA-1">
          <mxGeometry relative="1" as="geometry" />
        </mxCell>
        <mxCell id="Mm_1qLFOmpNbr2z96xXA-6" value="(1) fridayoclock.com" style="edgeLabel;html=1;align=center;verticalAlign=middle;resizable=0;points=[];" vertex="1" connectable="0" parent="Mm_1qLFOmpNbr2z96xXA-4">
          <mxGeometry x="-0.2215" y="3" relative="1" as="geometry">
            <mxPoint as="offset" />
          </mxGeometry>
        </mxCell>
        <mxCell id="cE6lG5kNnXl2HR2Tg05l-24" value="User" style="points=[[0.13,0.02,0],[0.5,0,0],[0.87,0.02,0],[0.885,0.4,0],[0.985,0.985,0],[0.5,1,0],[0.015,0.985,0],[0.115,0.4,0]];verticalLabelPosition=bottom;sketch=0;html=1;verticalAlign=top;aspect=fixed;align=center;pointerEvents=1;shape=mxgraph.cisco19.laptop;fillColor=#005073;strokeColor=none;" parent="1" vertex="1">
          <mxGeometry x="70" y="470" width="80" height="56" as="geometry" />
        </mxCell>
        <mxCell id="FTll38E0-4E9iMJwobfp-47" value="" style="image;aspect=fixed;perimeter=ellipsePerimeter;html=1;align=center;shadow=0;dashed=0;spacingTop=3;image=img/lib/active_directory/database.svg;" parent="1" vertex="1">
          <mxGeometry x="660" y="270" width="50" height="37" as="geometry" />
        </mxCell>
        <mxCell id="Mm_1qLFOmpNbr2z96xXA-5" style="edgeStyle=orthogonalEdgeStyle;rounded=0;orthogonalLoop=1;jettySize=auto;html=1;" edge="1" parent="1" source="Mm_1qLFOmpNbr2z96xXA-1" target="FTll38E0-4E9iMJwobfp-41">
          <mxGeometry relative="1" as="geometry" />
        </mxCell>
        <mxCell id="Mm_1qLFOmpNbr2z96xXA-7" value="(2) 34.72.79.26" style="edgeLabel;html=1;align=center;verticalAlign=middle;resizable=0;points=[];" vertex="1" connectable="0" parent="Mm_1qLFOmpNbr2z96xXA-5">
          <mxGeometry x="-0.2734" y="-2" relative="1" as="geometry">
            <mxPoint as="offset" />
          </mxGeometry>
        </mxCell>
        <mxCell id="Mm_1qLFOmpNbr2z96xXA-1" value="GoDaddy" style="rounded=0;whiteSpace=wrap;html=1;" vertex="1" parent="1">
          <mxGeometry x="296.43" y="466.5" width="120" height="63" as="geometry" />
        </mxCell>
      </root>
    </mxGraphModel>
  </diagram>
</mxfile>
